<?xml version="1.0" encoding="UTF-8" standalone="no"?>
<!DOCTYPE svg PUBLIC "-//W3C//DTD SVG 1.1//EN" "http://www.w3.org/Graphics/SVG/1.1/DTD/svg11.dtd">
<svg xmlns="http://www.w3.org/2000/svg" version="1.1" viewBox="0.00 0.00 94.00 75.00">
<path fill="currentColor" d="
  M 23.63 36.77
  A 0.37 0.36 -2.5 0 0 24.00 37.10
  L 38.76 37.02
  A 0.49 0.48 -90.0 0 1 39.24 37.51
  L 39.21 72.98
  A 0.44 0.43 -0.0 0 1 38.77 73.41
  L 2.77 73.42
  A 0.37 0.36 0.0 0 1 2.40 73.06
  Q 2.35 57.13 2.41 41.69
  Q 2.47 27.78 7.21 18.61
  C 13.41 6.60 25.60 1.47 38.74 0.58
  A 0.44 0.44 0.0 0 1 39.21 1.02
  L 39.24 11.26
  Q 39.24 11.97 38.53 12.05
  C 25.76 13.32 22.47 26.02 23.63 36.77
  Z"
/>
<path fill="currentColor" d="
  M 74.69 37.00
  L 89.00 37.03
  A 0.47 0.47 0.0 0 1 89.47 37.50
  L 89.46 72.73
  Q 89.46 73.41 88.77 73.41
  L 52.97 73.43
  Q 52.65 73.43 52.65 73.11
  Q 52.61 57.32 52.60 42.33
  C 52.58 17.92 63.49 2.62 88.78 0.57
  Q 89.46 0.52 89.46 1.19
  L 89.46 11.51
  A 0.37 0.37 0.0 0 1 89.14 11.88
  C 76.29 13.56 72.84 24.93 73.83 36.20
  Q 73.90 36.99 74.69 37.00
  Z"
/>
</svg>
