<svg class="img-fluid" id="outputsvg" xmlns="http://www.w3.org/2000/svg" style="transform: matrix(1.11388, 0, 0, 1.11388, 0, 0); transform-origin: 50% 50%; cursor: move; transition: transform 200ms ease-in-out 0s; max-height: 1489.12px;" width="550" height="642" viewBox="0 0 5500 6420"><g id="l5prNB6D2mRls04Y6eljv0K" fill="rgb(31,31,31)" style="transform: none;"><g style="transform: none;"><path id="pzJUQC7n7" d="M504 6410 c-223 -33 -393 -177 -472 -397 l-27 -78 0 -2725 0 -2725 27 -81 c61 -179 189 -306 375 -372 l78 -27 2265 0 2265 0 81 27 c179 61 309 192 370 375 23 68 26 96 28 221 l1 142 -170 4 c-172 4 -275 15 -330 34 -16 6 -48 16 -70 22 -22 7 -53 18 -70 25 -16 7 -52 21 -80 31 -53 19 -123 55 -167 85 -14 11 -29 19 -33 19 -13 0 -152 109 -215 168 l-65 62 -356 0 c-196 0 -358 3 -361 6 -3 3 -4 14 -1 25 5 18 17 19 334 19 181 0 329 3 329 6 0 6 -39 65 -50 74 -10 9 -64 94 -83 130 -48 93 -57 109 -69 117 -7 4 -112 10 -233 13 -187 4 -220 7 -220 20 0 13 32 15 218 18 203 2 218 4 212 20 -4 9 -16 46 -27 82 -11 36 -24 73 -29 82 -5 10 -9 32 -9 49 0 18 -5 49 -12 70 l-11 39 -171 2 c-163 3 -171 4 -171 23 0 19 8 20 168 23 92 1 167 6 167 10 1 17 1 308 1 320 -1 10 -34 13 -157 11 -155 -2 -173 2 -174 34 0 4 76 7 169 7 123 0 171 3 179 12 5 7 12 31 15 53 9 68 24 126 36 138 6 6 11 19 11 29 0 10 4 26 9 36 4 9 35 70 66 134 32 65 62 118 67 118 4 0 8 5 8 11 0 6 16 34 36 61 137 186 333 350 529 442 22 11 61 30 87 43 27 12 59 23 72 23 14 0 28 4 31 10 3 6 15 10 27 10 11 0 34 6 51 14 18 8 55 17 82 19 28 3 88 10 135 17 47 6 134 9 193 7 l108 -5 -3 1171 -3 1172 -27 81 c-61 179 -189 306 -375 372 l-78 27 -2230 1 c-1227 1 -2253 -2 -2281 -6z m2667 -4014 c42 -38 54 -79 39 -129 -6 -23 -16 -50 -21 -59 -5 -10 -9 -27 -9 -39 0 -11 -6 -33 -14 -47 -8 -15 -19 -47 -26 -72 -6 -25 -18 -58 -26 -73 -8 -16 -14 -36 -14 -45 0 -18 -24 -90 -39 -120 -5 -9 -15 -30 -22 -47 -8 -16 -31 -55 -53 -85 -46 -64 -325 -350 -342 -350 -36 0 -11 37 95 146 162 167 211 221 211 233 0 6 4 11 8 11 5 0 23 30 41 68 18 37 37 75 42 84 5 10 9 29 9 42 0 13 7 37 15 52 8 16 15 37 15 46 0 9 5 20 10 23 6 3 10 19 10 34 0 15 7 36 15 47 8 10 15 37 15 59 0 37 -6 47 -68 108 -63 63 -69 66 -87 52 -11 -8 -29 -15 -41 -15 -11 0 -29 -7 -40 -15 -10 -8 -31 -15 -46 -15 -15 0 -30 -4 -33 -10 -3 -5 -16 -10 -29 -10 -12 0 -31 -7 -42 -15 -10 -8 -27 -15 -37 -15 -9 0 -25 -4 -35 -9 -9 -5 -36 -17 -59 -27 -24 -11 -43 -22 -43 -26 0 -5 -6 -8 -14 -8 -17 0 -109 -91 -401 -394 -127 -132 -269 -280 -317 -329 -75 -76 -86 -92 -77 -108 5 -10 18 -19 28 -19 32 0 129 -55 187 -106 70 -62 166 -208 176 -268 2 -10 10 -23 18 -29 12 -7 33 8 95 72 80 83 105 97 105 61 0 -24 -316 -350 -358 -370 -15 -6 -41 -19 -57 -26 -39 -19 -189 -17 -227 2 -16 8 -43 21 -60 30 -50 25 -113 96 -144 161 -24 52 -27 69 -27 159 0 92 3 105 31 158 16 31 65 94 108 139 223 234 452 471 654 675 195 198 234 232 290 259 36 17 83 37 105 43 22 7 52 19 67 26 14 8 35 14 46 14 12 0 24 5 27 10 3 6 16 10 28 10 12 0 31 7 41 15 11 8 30 15 43 15 13 0 31 4 41 9 96 48 154 54 193 17z"></path><path id="p1BFyFCGzZ" d="M3060 2363 c0 -19 82 -94 98 -91 25 5 26 34 2 68 -18 25 -28 30 -61 30 -21 0 -39 -3 -39 -7z"></path><path id="p17ydgrain" d="M1695 1290 c-49 -20 -145 -149 -145 -194 0 -14 -5 -36 -11 -50 -13 -28 1 -124 27 -182 21 -47 92 -123 138 -145 54 -27 87 -33 164 -30 79 2 144 35 213 108 42 44 49 57 44 80 -12 59 -29 109 -42 124 -7 8 -13 19 -13 23 0 13 -72 108 -105 139 -34 32 -98 77 -135 93 -103 48 -103 48 -135 34z"></path></g></g><g id="lfqHHxPMhO53RWee35VN8N" fill="rgb(249,124,184)" style="transform: none;"><g style="transform: none;"><path id="pyP5ZU3g9" d="M5190 3590 c-30 -5 -82 -12 -115 -15 -33 -4 -74 -13 -92 -21 -17 -8 -40 -14 -51 -14 -12 0 -24 -4 -27 -10 -3 -5 -17 -10 -31 -10 -13 0 -45 -11 -72 -23 -26 -13 -65 -32 -87 -43 -196 -92 -392 -256 -529 -442 -20 -27 -36 -55 -36 -61 0 -6 -4 -11 -8 -11 -5 0 -35 -53 -67 -117 -31 -65 -62 -126 -66 -135 -5 -10 -9 -26 -9 -36 0 -10 -5 -23 -11 -29 -16 -16 -51 -187 -41 -198 3 -3 249 -5 547 -5 298 0 545 -3 548 -6 3 -4 2 -15 -4 -25 -9 -19 -31 -19 -562 -19 l-552 1 0 -163 0 -163 551 -3 c479 -2 553 -4 564 -17 7 -9 10 -19 6 -23 -4 -4 -257 -7 -563 -7 l-554 0 6 -25 c3 -14 8 -45 11 -70 3 -25 9 -54 13 -65 5 -11 21 -59 36 -107 l29 -88 513 0 c340 0 512 -3 508 -10 -4 -6 -183 -10 -506 -10 -274 0 -499 -4 -499 -8 0 -5 11 -29 25 -53 14 -24 33 -60 43 -79 18 -36 72 -121 83 -130 3 -3 17 -22 31 -43 l25 -38 389 -2 389 -2 3 -23 3 -23 -358 1 c-197 0 -362 1 -368 0 -24 -1 245 -230 270 -230 4 0 19 -8 33 -19 44 -30 114 -66 167 -85 28 -10 64 -24 80 -31 17 -7 48 -18 70 -25 22 -6 54 -16 70 -22 55 -19 158 -30 333 -34 l172 -3 0 1408 c0 1333 -1 1409 -17 1413 -33 8 -238 6 -293 -2z"></path></g></g><g id="l1uOcHyZJVZaIqfFkauSGTM" fill="rgb(245,236,239)" style="transform: none;"><g style="transform: none;"><path id="ptkrIMHtE" d="M3763 2422 c-95 -1 -173 -6 -173 -10 1 -35 0 -35 728 -40 l710 -5 11 22 c9 17 9 22 -1 26 -15 6 -1021 11 -1275 7z"></path><path id="pRgkfEUUK" d="M3030 2403 c-19 -8 -43 -19 -52 -24 -10 -5 -28 -9 -41 -9 -13 0 -32 -7 -43 -15 -10 -8 -29 -15 -41 -15 -12 0 -25 -4 -28 -10 -3 -5 -15 -10 -27 -10 -11 0 -32 -6 -46 -14 -15 -7 -45 -19 -67 -26 -22 -6 -69 -26 -105 -43 -56 -27 -95 -61 -290 -259 -202 -204 -431 -441 -654 -675 -43 -45 -92 -108 -108 -139 -28 -53 -31 -66 -31 -158 0 -90 3 -107 27 -159 31 -65 94 -136 144 -161 17 -9 44 -22 60 -30 38 -19 188 -21 227 -2 16 7 42 20 57 26 42 20 358 346 358 370 0 36 -25 22 -105 -61 -62 -64 -83 -79 -95 -72 -8 6 -16 19 -18 29 -10 60 -106 206 -176 268 -58 51 -155 106 -187 106 -10 0 -23 9 -28 19 -9 16 2 32 77 108 48 49 190 197 317 329 292 303 384 394 401 394 8 0 14 3 14 8 0 4 19 15 43 26 23 10 50 22 59 27 10 5 26 9 35 9 10 0 27 7 37 15 11 8 30 15 42 15 13 0 26 5 29 10 3 6 18 10 33 10 15 0 36 7 46 15 11 8 29 15 40 15 12 0 30 7 41 15 18 14 24 11 87 -52 62 -61 68 -71 68 -108 0 -22 -7 -49 -15 -59 -8 -11 -15 -32 -15 -47 0 -15 -4 -31 -10 -34 -5 -3 -10 -14 -10 -23 0 -9 -7 -30 -15 -46 -8 -15 -15 -39 -15 -52 0 -13 -4 -32 -9 -42 -5 -9 -24 -47 -42 -84 -18 -38 -36 -68 -41 -68 -4 0 -8 -5 -8 -11 0 -12 -49 -66 -211 -233 -106 -109 -131 -146 -95 -146 17 0 296 286 342 350 22 30 45 69 53 85 7 17 17 38 22 47 15 30 39 102 39 120 0 9 6 29 14 45 8 15 20 48 26 73 7 25 18 57 26 72 8 14 14 36 14 47 0 12 4 29 9 39 26 49 34 101 21 133 -31 75 -99 98 -180 62z m130 -63 c24 -34 23 -63 -2 -68 -16 -3 -98 72 -98 91 0 4 18 7 39 7 33 0 43 -5 61 -30z m-1392 -1056 c73 -32 88 -39 127 -66 22 -15 54 -39 70 -55 33 -31 105 -126 105 -139 0 -4 6 -15 13 -23 13 -15 30 -65 42 -124 5 -23 -2 -36 -44 -80 -69 -73 -134 -106 -213 -108 -77 -3 -110 3 -164 30 -46 22 -117 98 -138 145 -26 58 -40 154 -27 182 6 14 11 36 11 50 0 59 119 199 173 203 5 1 25 -6 45 -15z"></path><path id="pTZHOlpOB" d="M3755 2040 c-162 -5 -170 -6 -170 -25 0 -20 7 -20 727 -20 399 0 730 3 734 7 4 4 1 14 -6 23 -10 13 -87 15 -564 17 -303 2 -627 1 -721 -2z"></path><path id="p1FJsFIJ4r" d="M3585 1641 c-4 -7 -3 -17 1 -21 11 -11 454 -18 454 -7 0 4 225 7 499 7 323 0 502 4 506 10 4 7 -132 10 -402 10 -224 0 -552 3 -729 7 -251 5 -323 3 -329 -6z"></path><path id="prdA4HlYA" d="M3577 1251 c-3 -11 -2 -22 1 -25 3 -3 331 -6 729 -6 l724 0 -3 23 -3 22 -721 2 c-707 3 -722 3 -727 -16z"></path></g></g></svg>